<?xml version="1.0" encoding="utf-8"?>
<!-- Generator: Adobe Illustrator 19.0.0, SVG Export Plug-In . SVG Version: 6.00 Build 0)  -->
<svg version="1.1" id="Layer_1" xmlns="http://www.w3.org/2000/svg" xmlns:xlink="http://www.w3.org/1999/xlink" x="0px" y="0px"
	 viewBox="0 104.1 430.6 126.9" style="enable-background:new 0 104.1 430.6 126.9;" xml:space="preserve">
<g id="crawling-zombie-pattern-5">
	<path d="M425.4,202.8c-0.1-0.9,0.5-1.8,1.4-2.1c-6.5-4.5-13.9-7.8-21.6-9.6c0.6-0.7,1.1-1.4,1.7-2.1c-0.9-0.4-1.8-0.8-2.7-1.2
		c0.8-1.1,1.5-2.2,2.3-3.2c-26.7-1.4-53.2-7.6-77.7-18.3c-7-3-14-6.5-21.6-7c-9-0.6-17.5,2.9-25.5,7.6c-0.7,0-1.5,0.1-2.2,0.2
		c-3.8,0.7-7.7,1.6-11.6,1.7c-0.8,0-1.6,0-2.4,0c-1.4,1.2-2.7,2.5-4.1,3.7c0,0.1,0,0.2-0.2,0.2c0.1-0.1,0.1-0.1,0.2-0.2
		c0-0.3-0.5-0.7-0.8-0.4c-0.5,0.3-0.6,1-1.2,1.1c-0.5,0.2-1.1-0.3-1.6-0.4c-1.1-0.1-1.6,1.3-1.8,2.4c-0.2,1.9-0.5,3.9-0.7,5.8
		c-2-3.7-6.4-5.4-9.6-8c-2.7-2.1-4.7-5-5.8-8.2c-0.8,0.7-1.6,1.3-2.4,2c-1.1-1.4-1.9-3-2.4-4.7c-0.7,2-1.8,3.9-3.2,5.5
		c-0.7-3.2-1.6-6.4-2.7-9.4c-12.1-4.4-19.9-8-32.7-8.5l-4.9,0.5c-0.2-0.8-0.1-1.6,0.2-2.3c-1.7,1-4.1,0.5-5.6-0.8s-2.5-3.2-3.4-5
		c-1.6-3.5-3.2-7-5-10.4c-1.2-2.2-2.6-4.4-4.2-6.5c-0.3,0.1-0.6,0.2-0.9,0.2c-1.5,0.3-3.1,0.4-4.6-0.2c-1.4-0.6-2.6-1.9-2.6-3.5
		c-1.3,0.6-3,0.1-4-1.1c-1-1.1-1.3-2.7-1.2-4.1c-1.2,1.3-3.4,1.5-5,0.7c-1.6-0.9-2.6-2.6-3-4.3c-0.1-0.5-0.2-1-0.2-1.5
		c-2.5-0.4-5.1-0.4-7.6,0c-10.6,1.6-20.4,4-27.1,12.4c-1,1.3-1.5,4.5-1.7,7.6c-3.6,0-7.3,0.6-10.9,0.7c-3.9,0.1-7.8-0.2-11.8-0.7
		c-2.3-0.3-5.2-0.2-6.1,2.6c-0.3,1-0.4,2.4-1.1,3c-2.1,1.6-3.7-6.2-5.8-4.6c-0.4,0.3-0.7,1-1.2,1.1c-0.9,0.3-1.6-1.4-2.6-1.4
		c-1.3,0-1.3,3.1-2.6,3.6c-1.6-1-1.3-4.6-2.9-5.5c-0.6-0.3-1.2-0.2-1.8-0.1c-7.3,1.1-14.8-3.5-22-3.2c-1.3-0.5-2.7-0.9-4-1.4
		c-4.7-1.7-9.3-3.3-13.7-5.6c-3.5-1.8-6.8-4.1-9.9-6.7c-1.7-1.4-3.3-3-5.1-4.3c-3.6-2.5-8-3.7-12.2-4.8c1.5,2.5,3.4,4.9,5.4,7
		c1.4,1.4,2.9,2.7,4.5,4c-3.9,0-7.8,0.1-11.7,0.4c2,1.2,3.8,2.7,5.5,4.3c-0.4,0.4-0.7,0.8-1.1,1.3c2.4,0.6,4.7,1.1,7.1,1.7
		c2,0.5,4.1,1,6,1.7c1.5,0.6,2.9,1.3,4.3,2c0.2,1.8,0,3.7-1.3,4.9c-1.4,1.4-3.5,1.6-5.4,1.9c-2.6,0.5-5.2,1.5-7.5,3
		c-0.8,0.5-1.6,1.3-1.4,2.2c0.3,1.2,2.1,1,3.4,0.7c3-0.9,6.1-1.1,9.2-0.6c1.8,0.3,3.6,0.8,5.4,0.8c1.8,0,3.8-0.7,4.7-2.3
		c0.7,0.4,1.3,1,1.7,1.7c0.7-0.5,1.1-1.5,0.8-2.3c1,1.2,2.8,0.9,4.3,0.6c6.8-1.3,22.9,3.4,34.4,6.1c6.8,3.9,13.6,8.3,20.8,10.1
		c2.8,0.7,5.7,1.1,8.5,1.8c5.5,1.4,10.8,4.2,16.2,6c0,0.1,0,0.1,0.1,0.2c0,0.2,0,0.4-0.1,0.6c0,0.2,0,0.5,0.1,0.6
		c0.1,0.2,0.3,0.2,0.5,0.2c0,0,0.1,0,0.1,0c1.2,1.8,3.3,3.3,4.4,5c0.3,0.4,0.5,0.7,0.8,1c0.3,0.3,0.7,0.5,0.9,0.8
		c0.5,0.7,0.7,1.7,1,2.5c0.2,0.6,0.5,1.2,0.8,1.8c-0.2,0-0.4,0-0.7,0c-0.7-0.6-1.5-1.3-2.1-2c-0.7,0.2-1.3,1-1.4,1.7
		c0,0.2,0,0.3,0,0.5c-0.3,0.1-0.6,0.2-0.9,0.4c-0.6,0.5-0.7,1.5-0.4,2.2c0.4,0.7,1.1,1.2,1.8,1.6c0.6,0.3,1.2,0.4,1.9,0.5
		c0.5,0.9-0.6,2.3-0.4,4.7c0.1,0.7,0.1,1.3,0.4,1.9c0.6,1.1,2.1,1.6,3.5,1.5c0.6-0.1,4.5-0.2,8.5-0.3c-1,4.4-3.3,8.4-6.3,11.8
		c-3.2,3.7-7.2,6.6-11.3,9.3c-1-1-2.1-1.9-3-2.9c2-2.1,3.5-4.6,4.5-7.3c-1.3,0.7-2.9-0.1-4.1-1c-1.2-0.9-2.6-1.9-4-1.6
		c-0.6,0.1-1.2,0.5-1.8,0.4c-1.1-0.3-1.2-2-2.3-2.4c-0.6,0.9-1.9,0.4-2.8,0c-2.7-1.1-6.1-0.4-8.1,1.8c-0.6,0.7-1.2,1.5-1.9,2.1
		c-0.8,0.6-1.9,0.8-2.8,1.2c-2.1,0.9-3.8,2.8-4.3,5c3.5,2.2,8.3,0.7,12.1,2.3c1.4,0.6,2.5,1.5,3.7,2.4c0.2,3,0.5,6,1.2,9
		c0.4,1.6,1,3.2,1.7,4.7c0.1,1.9,0.9,3.6,2.4,4.7c1.8,1.2,4,1.3,6.2,1.2c1.4,0,2.8-0.1,4.2-0.3c1.1,0.9,2.2,1.8,3.4,2.6
		c0.4,0.3,0.9,0.7,1.4,0.8c1.1,0.3,2.1-0.3,3.1-0.8c8.2-4.1,17.9-3.7,26.6-6.4c4.2-1.3,8.2-3.3,12.2-5.3c1.6,0.7,3.4,1.2,5.1,1.5
		c5.6,1,11.4,0.4,17.1,0.3c11.2-0.1,22.2,1.9,33.4,2.3c5.5,0.2,11.1,0,16.6-0.1c8.9-0.3,17.8-0.5,26.6-0.8c6.2-0.2,13-0.7,18.3-3.4
		c3.6,0.3,7.3,0.6,10.9,0.8c14,0.7,28-1.9,42-2.5c7.9-0.3,15.9,0,23.8-0.1c17.6-0.1,35.2-1.7,52.7-3.4c2.8-0.3,5.5-0.5,8.2-1.3
		c4.1-1.2,7.8-3.5,10.6-6.7C428.9,203.8,427.2,203.1,425.4,202.8z M128.3,173.6c-0.4-1.7-1.2-3.2-1.9-4.8c-0.5-1.2-0.7-2.5-1-3.8
		c1.8,1.7,5,5.4,4.6,7.1C129.9,172.9,129.2,173.4,128.3,173.6C128.3,173.6,128.3,173.6,128.3,173.6z M122,168
		c-0.7-0.5-0.4-1.4-1-2.1c-0.6-0.6-1.5-1.4-2.1-2.1c-0.4-0.4,1.8-0.5,3.7-0.6c0.1,0,0.2,0,0.3,0c0.5,0.3,1,0.5,1.4,0.9
		c0.6,1.5,0.7,3.2,1.1,4.7c0,0.1,0,0.1,0.1,0.2c0,0.5-0.1,0.9-0.5,1.2c-0.1,0.1-0.3,0.2-0.4,0.3c-0.2-0.3-0.4-0.6-0.7-0.9
		C123.3,169.1,122.6,168.5,122,168z M125.1,171.8c0,0,0-0.1-0.1-0.1c0.1-0.1,0.7-0.9,0.8-1c0,0,0.1-0.1,0.1-0.1
		c0.3,0.9,0.7,1.9,0.9,2.8c0,0.2,0.1,0.4,0.1,0.6c-0.2,0-0.5,0.1-0.7,0.1C125.9,173.3,125.5,172.5,125.1,171.8z"/>
</g>
<g id="Layer_1_1_">
</g>
</svg>
