<?xml version="1.0" encoding="utf-8"?>
<!-- Generator: Adobe Illustrator 19.0.0, SVG Export Plug-In . SVG Version: 6.00 Build 0)  -->
<svg version="1.1" id="Layer_1" xmlns="http://www.w3.org/2000/svg" xmlns:xlink="http://www.w3.org/1999/xlink" x="0px" y="0px"
	 viewBox="0 21.9 430.6 292.1" style="enable-background:new 0 21.9 430.6 292.1;" xml:space="preserve">
<g id="crawling-zombie-pattern-1">
	<path d="M430.3,214.6c-6.8,0.7-15.1,0.8-18.7-5c-1-1.6-1.5-3.4-2.1-5.1c-2.7-6.7-8.9-11.9-15.9-13.5c-5.3-1.2-10.9-0.4-16.3-1.1
		c-12.5-1.8-22.2-11.6-29.8-21.7c-1.5-1.9-2.9-3.9-4.3-5.8c-0.3-1.8-0.6-3.6-1-5.4c-2.6-12.7-7.6-25.5-17.4-33.9
		c-7.2-6.1-16.5-9.3-25.7-11.3c-11-2.3-22.4-3.1-33.7-2.2c1.2-20.6-0.8-41.9-11.2-59.5c-3-5.1-6.9-9.7-11.3-13.7
		c2.5,0.3,4.9,0.9,7.2,1.8c7.7,3,13.1,10,17.5,16.7c1.3,1.9,2.4,4,3.4,6.1c0.5,1.2,1,2.4,1.5,3.6c0.4,1.1,0.6,2.2,1.1,3.2
		c0.3,0.6,1.2,0.3,1.3-0.3c0.1-2-0.8-4.4-1.6-6.3c-0.8-2-1.8-4-2.9-5.9c-2.2-3.8-4.7-7.4-7.5-10.7c-2.8-3.2-6-6.2-9.8-8.1
		c-3.9-2-8.1-3.1-12.4-3.6c-0.8-0.1-1.6-0.2-2.5-0.2c-0.5-0.3-1-0.7-1.4-1c7-2,14.5-1.9,21.4,0.3c4.6,1.5,8.8,3.9,12.5,7
		c0.5,0.4,1.1-0.2,0.7-0.7c-13.1-16.8-36.4-9.7-40.3-8.4c-11.8-7.5-22.1-9.8-35.1-5.1c-14.1,5.1-24.2,18.1-28.9,32.2
		c-0.2,0.7-0.4,1.3-0.6,2c-5.8,6.4-9.7,14.4-10.9,22.9c-1.1,7.7-0.7,16.7-6.6,21.7c-3.6,3.1-9.6,5.1-9.3,9.8
		c2.7-0.7,5.5-1.5,8.2-2.2c-3.9,7.8-9.6,15.2-10.7,23.9c1.8-2.2,6.7-3.3,8.4-5.5c0,1.2,0.1,4,0.2,6.6c-7.4,3.5-14.3,8.2-20.6,13.3
		c-2.6,2.1-5.1,4.2-7.5,6.4c-1.4,9.4-6,18.9-5.4,28.5c-2.2-1.7-5-2.5-7.8-2.2c-5.4,0.5-9.7,4.9-12.4,9.6c-0.3,0.4-0.5,0.9-0.9,1.1
		c-1.4,0.9-2.9-0.9-4.3-1.8c-1.7-1.1-4.1-0.9-5.6,0.4c-1.5,1.4-1.9,3.8-1,5.6c-2.3-1.6-4.5-3.3-6.7-5.1c-8,4.3-16.6,7.3-25.4,8
		c-4.5-11.2-7.3-23-8.2-35c-0.2-2.9-0.3-5.8-0.7-8.7c6.6-6.7,14.6-11.9,23.5-15.1c5.6-2,11.9-3.6,15.5-8.3c5-6.7,2.2-16.2,3.2-24.5
		c-5.9,7.4-12.2,15.1-21.1,18.3c-3,1.1-6.1,1.6-9.1,2.1c3.3-3.5,6.9-6.8,10.5-10.1c5.9-5.5,12.5-12.3,11.1-20.3c-0.6,0-1.2,0-1.8,0
		c0.8-1.2,1.6-2.3,2.5-3.4c2.4-2.9,5.2-5.3,7.5-8.2c3.3-4.3,5.5-9.5,6.1-14.9c-6.6,2.4-12.5,6.7-17,12.1c-1.4,1.7-2.7,3.5-3.8,5.4
		c-0.7-0.1-1.4,0-2.1,0.1c-1.8,0.2-3.7-0.2-5.3-1.1c4.8-7.2,9.6-14.4,14.4-21.6c1.7-2.5,3.4-5.1,4.1-8.1c1-4.2,0.1-9.1,2.6-12.7
		c1.2-1.7,3.3-4,1.8-5.5c-0.6-0.6-1.5-0.8-2.3-0.9c-4.5-0.5-9.6-0.9-12.8,2.3c-1.6,1.5-2.4,3.6-3.2,5.6C58.1,60,50.6,72,39.5,79.8
		c-0.2,0.1-0.4,0.3-0.6,0.4c1.8-5.4,3.4-10.9,4.1-16.6c0.4-3.1,0.6-6.3,1.8-9.2c1.7-3.9,5.2-6.7,7.8-10.1c2.6-3.4,4.3-8.3,1.9-11.9
		c-2.4,4.8-8.4,7.4-13.6,6c-6.4,12.8-12.8,25.6-19.2,38.3c-1.8,3.6-6.1,7.6-8.9,4.8l0.1,4.3c-0.7-0.3-1.2-1-1.3-1.7
		c-2.2,16.5-12.6,31.7-11.2,48.2c0.7,8.2,4.2,15.9,8.7,22.8c-0.9,4.3-1,8.9-1,13.3C8,185.2,7.8,202,7.6,218.8
		c-0.1,10.8,0.5,23.3,9,30c5.6,4.4,13.5,5.1,20.4,3.4c5.6-1.4,10.7-4,15.6-6.9c14.3,11.1,35.2,12.8,54,12.5c9-0.2,18.1-0.5,27-2.5
		c10.1-2.2,19.8-6.4,30-7.9c3.6-0.5,7.2-0.7,10.8-0.8c13.4,10.1,28.9,17.2,45.3,20.7c4.5,0.9,9.1,1.6,13.6,2.6
		c-15.5,10.1-35.7,13.3-53.3,7.5c-6.8-2.2-13.4-5.7-20.6-6.1c-12-0.7-22.6,7-32.1,14.3c-6.1,4.7-12.1,9.3-18.2,14
		c-2.9,2.2-6.1,5.1-5.8,8.7c20.2,4.8,41.5,8,61.7,3c4.9-1.2,9.7-2.9,14.6-4c12.6-2.8,25.6-1.7,38.5-0.7c19.1,1.6,38.1,3.2,57.2,4.8
		c7.5,0.6,15.1,1.3,22.6,1.2c13.1-0.1,26.2-2.2,38.6-6.3c3.1-1,6.4-2.3,8.2-5c1.5-2.2,1.7-5,1.9-7.6c0.1-2.1,0.2-4.2,0.3-6.3
		c6.3-3,12.4-6.4,18.9-8.9c10.5-4,21.8-5.5,32.6-8.6c10.8-3.1,21.6-8.4,27.7-17.9c-2.6-0.7-5.1-1.5-7.7-2.2
		C426.1,239.8,430.4,227.2,430.3,214.6z"/>
</g>
<g id="Layer_1_1_">
</g>
</svg>
