<?xml version="1.0" encoding="utf-8"?>
<!-- Generator: Adobe Illustrator 19.0.0, SVG Export Plug-In . SVG Version: 6.00 Build 0)  -->
<svg version="1.1" id="Layer_1" xmlns="http://www.w3.org/2000/svg" xmlns:xlink="http://www.w3.org/1999/xlink" x="0px" y="0px"
	 viewBox="0 90.3 430.6 154.7" style="enable-background:new 0 90.3 430.6 154.7;" xml:space="preserve">
<g id="crawling-zombie-pattern-3">
	<path d="M398.7,229.6c-1.7-1-3.3-3.6-1.5-4.4c-3,0.4-6.9,0.3-7.8-2.5c-0.4-1.2,0-2.5-0.2-3.8c-0.4-2.7-3.1-4.3-5.5-5.6
		c-0.3-0.1-0.6-0.3-0.8-0.4c2.7-3.6,5.9-6.9,8.3-10.8c1.4-2.3,2.5-4.9,3.5-7.4c0.2-0.4,0.3-0.8,0.3-1.2c0-0.3-0.2-0.7-0.4-1
		c-0.5-0.9-1-1.8-1.6-2.7c-1.5,0.9-3.1,1.3-4.8,1.4c0-0.5,0-1,0-1.5c-3,2.6-6.2,5-9.6,7.3c-1.3-2-2.6-4-2.9-6.4
		c-0.9,0.5-1.7,1-2.6,1.5c0-0.5-0.1-1.1-0.1-1.6c-0.6,0.3-1.2,0.4-1.8,0.4c0-0.8,0.3-1.6,0.8-2.2c-1.8,0.1-3.4,1.2-5.1,2
		c-2.1,0.9-4.5,1.3-6.8,1c-1.2-1.6-2.4-3.3-3.6-4.9c-4.8-6.7-9.6-13.4-13.7-20.6c-2.1-3.7-4-7.6-6.5-11.1
		c-5.1-7.1-12.7-12.4-21.1-14.9c-0.6-0.5-1.2-1-2-1.2c-1.4-0.5-3-0.4-4.5-0.5c-4.5-0.5-8.5-3.7-13.1-3.8c-3.3,0-6.3,1.6-9.5,2.3
		c-2.7,0.6-5.5,0.6-8.2,0.6c-3.6,0-7.2-0.1-10.8-0.1c-2.3,0-4.6,0-6.8-0.6c-1.4-0.4-2.7-1-4-1.5c-5.6-2-11.6-1.7-17.5-2.6
		c-1.2-0.5-2.4-0.9-3.5-1.3c-3.5-1.2-7-2.3-10.5-3.4c-1.2-0.5-2.4-0.9-3.6-1.3c-2-0.7-4-1.2-6.1-1.6c-4.7-1.5-9.3-3.2-13.7-5.3
		c-5.9-2.8-11.5-6.5-17.8-8.4c-8.7-2.6-17.9-1.7-26.9,0.2c-3.5-0.1-7,0-10.5-0.2c-10-0.6-19.8-3.5-29.7-4.5
		c-1.3-0.3-2.6-0.7-3.9-0.9c-5.1-1-10.2-1.3-15.3-1.1c-0.4,0.2-0.8,0.5-1.3,0.7c-2.7,1.3-5.6,2.2-8.2,3.7c-0.8,0.5-1.6,1-2.5,1.1
		c-0.9,0.1-2-0.3-2.3-1.2c0,1.5-2,2.3-3.5,1.9s-2.6-1.6-4-2.3c-0.1,1.1-0.9,2.1-1.9,2.6c-0.1-0.7-0.3-1.4-0.8-1.9
		c-0.3,0.9-1.1,1.6-2.1,1.8c-0.8-1-1.7-2.1-2.6-3.1c-7.8,1-15.6,1.6-23.3,0.8c-0.8-0.3-1.5-0.6-2.2-0.9c-7.2-3-13.8-7.3-19.2-12.5
		c-0.8-0.8-1.7-1.6-2.8-2c-1.2-0.4-2.4-0.2-3.7-0.1c-5.7,0.4-11.5-0.5-16.6-2.8c2.4,3,5.2,5.8,8.3,8.3c0,0,0.1,0.1,0.1,0.1
		c-1.6,1-3.3,1.9-5,2.7c1.1,0.3,2.3,0.6,3.4,0.9c0.2,0.7-0.1,1.5-0.7,1.9c0.7,0,1.3,0.1,2,0.1c-0.3,0.5-0.7,0.9-1,1.4
		c5.3-0.2,10.7,0,16,0.7c0.1,0.9-0.5,1.8-1.5,2.1c4.3,0.7,8.3,2.3,12.3,4.1c0.7,0.5,1.4,1,2.1,1.4c0.9,0.5,1.9,0.9,2.9,1.3
		c0,0.5,0.1,1,0.2,1.5c-0.2,0.1-0.5,0.1-0.7,0.2c-2.2,0.5-4.4,0.6-6.5,1.3c-2.1,0.7-4.1,2.3-4.2,4.3c6.8-0.2,13.7,1,20.5,1.3
		c7.1,0.4,14.2-0.2,21.1-1.7c8-0.4,15.9-0.8,23.8,0.2c6.9,0.8,13.6,2.5,20.5,3.3c5.4,0.6,10.9,0.5,16.3-0.2c1.4,0.4,2.9,0.9,4.3,1.3
		c-3.4,4.4-5.5,9.9-5.7,15.4c-0.1,1.4,0,2.7,0.3,4c0.3,1.2,0.9,2.4,1.6,3.5c1.8,2.9,4.1,5.4,6.8,7.5c1.4,4.1,1.9,8.7,3.3,12.9
		c1.2,3.9,3.3,7.5,5.2,11c-0.4-1.4-0.6-2.9-0.5-4.4c0.1,0.7,0.2,1.4,0.7,1.9c0.5,0.5,1.4,0.6,1.8,0c1.5,5.1,2.5,10.2,3.1,15.5
		c1.1-4.3,2-8.6,2.4-13.1c0.9,1.7,1.9,3.4,2.8,5c0.1-2.3,0.2-4.6,0.3-6.9c0.5,1.7,1,3.4,1.4,5.1c1.2-1.9,2.2-3.9,3.1-5.9
		c0.8,6.8,0.6,13.8,2.3,20.4c0.8,3.3,2.1,6.4,3.4,9.5c0.6,1.4,1.2,2.9,1.8,4.3c-12.4,2.6-25.6,0.5-38.3,1.9
		c-5.5-1.6-11-3.2-16.5-4.6c-1.3-0.3-2.6-0.7-3.9-0.5c-2.1,0.3-3.8,1.7-5.5,3c-3.6,2.7-7.7,4.9-11.9,6.4c5.3,1.9,10.9,3.1,16.5,3.6
		c2.6,0.2,5.7,0,6.9-2.3c0.9,2.2,3.7,2.7,6.1,2.8c6.4,0.5,12.9,1,19.3,0.6c13.7,1.1,27.5,2.1,41.3,1.5c1.2-0.1,2.5-0.1,3.5-0.7
		c1.5-0.9,2.3-2.5,2.7-4.3c1.9-0.7,3.8-1.4,5.7-1.8c0.4-4.8,0.9-9.6,1.4-14.4c6.1-1.9,12.4-3.1,18.8-3.4c9.5-0.5,19,0.9,28.4,1.5
		c9.5,0.6,19.2,0.5,28.1-2.8c0.7-0.3,1.4-0.5,2.1-0.6c2.9-0.2,4.9,3.2,7.8,3.8c0.3-1.4,0.6-2.7,1-4.1c9.1,5.7,18.4,10.9,27.9,15.8
		c0.2-0.1,0.5-0.3,0.7-0.4c3.6-2,7.2-4.8,11.3-4.3c-1.3,1.5-0.5,4.1,1.4,4.8c1.8,0.7,4.1-0.6,4.7-2.4c0.8,1.2,1.5,2.5,2.3,3.7
		c1-0.5,2-1.1,3-1.6c5.5,6.9,10.9,13.8,16.4,20.6c12.5,5.9,26.2,9.3,40.1,9.8c5.4,0.2,10.8,0,16.2-0.5c8.1-0.7,16.2-1.9,24.1-3.6
		C419.2,238.8,408.4,235.1,398.7,229.6z"/>
</g>
<g id="Layer_1_1_">
</g>
</svg>
