<?xml version="1.0" encoding="iso-8859-1"?>
<!-- Generator: Adobe Illustrator 19.0.0, SVG Export Plug-In . SVG Version: 6.00 Build 0)  -->
<svg version="1.1" xmlns="http://www.w3.org/2000/svg" xmlns:xlink="http://www.w3.org/1999/xlink" x="0px" y="0px"
	 viewBox="0 0 264.203 430" style="enable-background:new 0 0 264.203 430;" xml:space="preserve">
<g id="zombie-pattern-5">
	<path d="M245.347,350.234c-2.9-9.942-5.505-19.971-7.808-30.068c-1.772-7.768-3.364-15.569-4.806-23.397
		c0.125-16.261,0.25-32.523,0.376-48.784c0.059-7.62,0.117-15.255-0.586-22.842c-1.112-12.006,1.373-33.902,5.778-31.654
		c-6.703-10.139-10.411-21.641-10.707-33.215c2.409,0.169,4.818,0.338,7.227,0.508c-5.644-4.582-10.848-9.54-15.546-14.811
		c2.687-1.334,5.374-2.668,8.061-4.002c-0.767-3.47-0.912-6.902-0.604-10.309c1.5,0.712,3,1.425,4.5,2.137
		c-0.657-17.508,8.806-33.775,13.888-50.76c1.463,2.622,3.421,4.943,5.954,6.521c-1.923-4.263-3.33-8.759-4.19-13.356
		c0.056-0.262,0.111-0.524,0.163-0.786c0.464-2.312,0.803-4.685,0.841-7.04c1.022,0.516,2.065,1.01,2.995,1.667
		c4.55,3.215,5.484,9.464,6.027,15.009c1.851-9.75-2.472-19.541-7.199-28.267c-1.121-2.07-2.293-4.186-2.605-6.52
		c-0.338-2.529,0.365-5.07,0.49-7.62c1.611,1.625,2.932,3.51,3.75,5.641c1.011,2.634,1.216,5.519,2.183,8.17
		c1.697,4.656,5.849,8.336,10.675,9.463c-4.172-2.007-6.917-6.243-8.239-10.681c-1.322-4.437-1.417-9.132-1.59-13.758
		c-0.173-4.627-0.452-9.339-2.107-13.663c-1.118-2.921-2.808-5.529-4.786-7.949c-0.777-2.569-1.972-5.022-3.215-7.412
		c-2.258-4.345-4.948-8.838-9.34-11.003c-6.195-3.053-13.505-0.545-20.289,0.754c-3.046,0.583,0.016,2.485-2.748,3.892
		c-2.265,1.153-4.126,2.95-5.95,4.721c-2.833,2.75-5.764,5.653-6.995,9.404c-0.736,2.243-0.889,4.819-2.494,6.55
		c-0.824,0.889-1.947,1.444-2.836,2.269c-2.217,2.056-2.627,5.377-2.688,8.401c-0.049,2.465-2.099,6.209-3.702,9.757
		c-12.814-3.027-31.849-7.609-44.663-10.636c-0.62-0.146-1.275-0.292-1.885-0.109c-1.964,0.59-2.049,3.976-4.068,4.333
		c-1.383,0.244-2.457-1.196-2.931-2.518c-0.473-1.322-0.84-2.875-2.075-3.544c-0.827,0.553-1.655,1.106-2.482,1.658
		c-1.625-0.528-2.032-3.714-3.627-3.1c-0.391,0.15-0.646,0.518-0.946,0.811c-1.526,1.491-4.164,0.928-5.842-0.391
		c-1.678-1.318-2.816-3.214-4.437-4.602c-2.702-2.315-6.407-2.974-9.918-3.546c-14.807-2.412-29.615-4.824-44.422-7.236
		c0.236,0.544,0.452,1.097,0.652,1.656c-2.795-0.862-5.59-1.723-8.385-2.585c-1.06-0.327-2.174-0.657-3.263-0.443
		c-1.03,0.202-1.899,0.865-2.766,1.457c-5.38,3.672-11.907,5.137-18.143,7.018c-4.197,1.266-8.328,2.75-12.371,4.444
		c-0.594,0.249-1.196,0.508-1.684,0.928c-0.478,0.411-0.82,0.952-1.166,1.478C9.417,37.425,5.048,41.927,0,45.464
		c2.849,1.404,6.417,1.229,9.114-0.448c1.414-0.879,2.552-2.103,3.687-3.334c-0.916,3.189-2.229,6.264-3.91,9.124
		c1.206-0.379,2.344-0.97,3.347-1.74c0.025,0.66,0.05,1.321,0.076,1.981c0.351-0.398,0.703-0.795,1.054-1.193
		c0.119,0.372,0.237,0.744,0.356,1.117c1.826-3.768,4.49-7.125,7.736-9.769c-0.2,1.694-0.749,3.348-1.617,4.817
		c2.584,0.099,5.193-0.767,7.205-2.391c2.004-1.618,3.356-3.881,4.867-5.966c0.258-0.356,0.524-0.708,0.797-1.056
		c0.612,0.084,1.215,0.214,1.802,0.417c1.751,0.605,3.355,1.977,3.71,3.795c0.672,3.437-3.045,6.024-4.341,9.278
		c-0.934,2.344-0.491,5.181,1.113,7.129c3.338-2.961,6.281-6.366,8.727-10.097c1.814-2.766,3.37-5.728,5.573-8.196
		c1.439-1.611,3.125-2.979,4.744-4.409c0.712-0.629,1.412-1.273,2.1-1.929c1.35,0.63,2.541,1.601,3.425,2.801
		c-0.859,0.723-1.717,1.447-2.576,2.17c3.727,0.098,7.479,0.2,11.125,0.981c13.694,2.934,24.188,14.998,37.99,17.371
		c-1.387,1.087-2.774,2.174-4.161,3.26c4.194,0.008,8.388,0.017,12.582,0.025c2.138,1.347,4.455,2.275,6.894,1.89
		c0.001,1.468-0.198,2.935-0.59,4.35c1.805-0.885,3.76-1.465,5.757-1.707c0.205,0.679,0.272,1.4,0.196,2.106
		c4.185,0.108,8.359,0.365,12.524,0.736c-6.439,3.895-13.024,7.571-20.145,9.949c-2.719,0.908-5.553,1.645-7.937,3.238
		c-2.384,1.593-4.28,4.295-3.981,7.147c-1.842-0.763-3.685-1.526-5.527-2.29c-0.358,1.303-0.717,2.607-1.075,3.91
		c-1.21-0.337-2.419-0.674-3.629-1.011c1.067,3.121-3.067,5.291-6.272,6.071c-10.106,2.461-19.999,5.801-29.529,9.968
		c-0.705,0.308-1.481,0.698-1.72,1.43c-0.022,0.066-0.037,0.132-0.048,0.199c-3.213,1.206-6.425,2.412-9.638,3.618
		c-5.735,8.236-12.214,15.954-19.333,23.028c-0.591,0.588-1.202,1.192-1.525,1.961c-0.362,0.86-0.324,1.829-0.28,2.761
		c0.301,6.386,0.601,12.772,0.901,19.158c3.674-3.25,5.938-8.004,6.287-12.888c0.799,0.645,1.663,1.22,2.52,1.726
		c3.017,1.78,6.439,3.424,8.005,6.558c0.342-1.647,0.169-3.267-0.293-4.857c1.293,0.221,2.746-0.506,3.571-1.596
		c1.02-1.348,1.331-3.085,1.642-4.746c0.966-5.163,2.309-10.458,5.598-14.553c1.012-1.26,2.224-2.437,2.722-3.975
		c0.303-0.936,0.335-1.973,0.335-3.008c0.15-0.128,0.299-0.256,0.449-0.383l3.857-2.248c0.532,1.066,1.064,2.132,1.596,3.199
		c1.45-1.078,3.179-1.777,4.97-2.009c-0.839,2.033-2.02,3.924-3.478,5.569c2.12-0.122,4.24-0.244,6.36-0.366
		c-0.434,1.598-1.111,3.13-2.001,4.526c18.02-8.764,36.039-17.529,54.059-26.293c0.096,1.335,0.192,2.67,0.289,4.005
		c7.444-6.515,17.612-8.65,27.151-11.271c3.087-0.848,6.154-1.771,9.197-2.767c-1.103,11.222-2.206,22.444-3.309,33.666
		c-0.277,2.819-0.017,6.407,3.145,7.437c-2.832,1.145-6.038,1.639-9.174,1.413c1.499,2.255,2.997,4.511,4.495,6.767
		c-1.603,0.554-3.205,1.108-4.808,1.662c-0.718,16.675-4.069,33.27-9.94,49.222c1.053,0.34,2.114,0.663,3.181,0.969
		c-7.969,18.56-16.941,40.04-23.633,54.885c-9.386,20.822-8.623,44.499-25.394,60.84c2.636,1.97,5.272,3.94,7.909,5.91
		c-3.616,0.628-7.315,0.839-10.986,0.627c1.787,1.637,3.267,3.563,4.353,5.665c-2.092,0.654-4.462,0.503-6.438-0.412
		c0.073,8.853-4.782,17.014-9.499,24.708c-5.835,9.518-11.669,19.035-17.504,28.553c4.078,1.139,8.49,1.225,12.617,0.248
		c-0.127,2.01-0.857,3.984-2.088,5.641c0.774-0.914,2.536-0.207,2.877,0.912c0.104,0.34,0.122,0.685,0.084,1.029
		c-3.217,6.33-5.516,13.036-6.319,20.097c-0.148,1.306,0.005,2.604,0.373,3.866c2.918,9.993,22.712,12.397,29.768,8.325
		c1.596-0.921,0.455-6.364-0.694-7.804c-6.099-7.65-9.065-15.318-6.805-24.794c12.182-22.63,27.151-43.967,44.536-63.449
		c1.661,0.632,3.322,1.263,4.984,1.894c1.485-14.697,5.309-29.189,11.308-42.859c1.022,0.783,2.044,1.565,3.066,2.348
		c-1.056-2.397-0.125-5.412,2.137-6.925c-0.223-2.857-1.152-5.664-2.697-8.144c3.066-0.35,6.133-0.699,9.199-1.049
		c-3.313-11.664,4.22-23.369,11.419-33.41c1.754-2.447,3.508-4.894,5.262-7.341c5.658,27.197,9.564,54.758,11.678,82.457
		c1.054,13.808,1.732,27.958,7.026,40.755c1.129-1.986,2.258-3.972,3.387-5.958c1.07,6.991,2.14,13.982,3.21,20.973
		c7.196,12.242,12.604,25.531,16.029,39.312c-3.043,7.053-9.706,12.67-17.405,13.49c-4.296,0.457-9.164-0.226-12.455,2.573
		c-2.792,2.374-3.354,6.397-3.728,10.043c-0.06,0.583-0.093,1.249,0.313,1.672c0.224,0.234,0.544,0.345,0.851,0.447
		c12.239,4.064,26.089,5.085,37.82-0.273c11.545-5.273,20.508-13.213,22.399-20.747c2.274,1.127,4.861,1.629,7.388,1.379
		c-8.707-19.111-15.413-39.132-19.976-59.631C242.026,348.296,243.687,349.265,245.347,350.234z M43.654,140.808
		c-0.413-0.76-0.831-1.512-1.226-2.256c-0.632-1.19-1.197-2.505-1.596-3.851c1.242-1.061,2.484-2.121,3.727-3.182
		C44.889,134.633,44.58,137.816,43.654,140.808z"/>
</g>
<g id="Layer_1">
</g>
</svg>
