<?xml version="1.0" encoding="iso-8859-1"?>
<!-- Generator: Adobe Illustrator 19.0.0, SVG Export Plug-In . SVG Version: 6.00 Build 0)  -->
<svg version="1.1" xmlns="http://www.w3.org/2000/svg" xmlns:xlink="http://www.w3.org/1999/xlink" x="0px" y="0px"
	 viewBox="0 0 233.074 430" style="enable-background:new 0 0 233.074 430;" xml:space="preserve">
<g id="zombie-pattern-1">
	<path d="M212.174,17.653c-1.342-0.281-2.759-0.585-3.993-1.158c2.753-1.261,5.598-2.327,8.492-3.218
		c3.585-1.103,7.491-2.095,9.914-4.958c-0.834-0.08-1.669-0.159-2.503-0.239c0.994-0.832,1.987-1.664,2.981-2.496
		c-4.016,0.284-8.039,0.464-12.064,0.542c2.31-1.36,4.113-3.575,4.944-6.126c-5.117,2.033-10.523,3.335-16.004,3.856
		c-1.369,0.13-2.772,0.218-4.037,0.759c-1.54,0.658-2.725,1.919-3.906,3.107c-3.927,3.952-8.31,7.452-13.033,10.407
		c-7.255,4.54-15.793,8.28-19.698,15.896c-0.974,1.899-1.601,3.955-2.134,6.021c-0.216,0.837-0.417,1.678-0.602,2.522
		c-0.73,1.256-1.39,2.548-1.993,3.802c-5.264,10.95-10.529,21.901-15.793,32.851c-3.209,6.676-6.445,13.438-8.508,20.522
		c-0.046,0.042-0.091,0.085-0.137,0.128c-3.017,0.985-5.429,3.303-7.705,5.544c-14.262,14.043-28.524,28.085-42.786,42.127
		c-3.745,3.688-7.929,7.559-12.7,9.388c-0.19-0.547-0.392-1.09-0.596-1.628c-1.535-4.055-3.272-8.203-6.434-11.17
		c-1.302-1.221-2.762-2.171-4.325-2.944c0.245-1.339-0.178-2.82-0.977-3.959c-1.056-1.507-2.653-2.535-4.236-3.472
		c-5.235-3.1-10.797-5.647-16.564-7.585c-3.817-1.283-7.874-2.307-11.843-1.627c-3.969,0.681-7.818,3.464-8.61,7.412
		c-0.2,0.995-0.206,2.036-0.564,2.986c-0.962,2.551-3.958,3.521-6.274,4.96C6.39,142.45,3.91,147.391,4.317,152.2
		c0.057,0.679,0.164,1.386-0.07,2.026c-0.338,0.922-1.283,1.457-1.899,2.222c-1.277,1.585-0.979,3.92-0.248,5.82
		c0.731,1.9,1.836,3.709,2.007,5.737c0.316,3.742-2.562,6.932-3.644,10.528c-1.036,3.446-0.303,7.374,1.907,10.214
		c-0.774-3.604,0.134-7.534,2.411-10.433c0.187-0.237,0.382-0.468,0.582-0.696c0.227,6.932-2.376,13.962-3.56,20.941
		c-0.179,1.057-0.324,2.156-0.04,3.19c0.29,1.055,0.997,1.935,1.557,2.876c3.306,5.551,1.353,12.565,1.247,19.025
		c-0.119,7.309,2.379,14.634,6.94,20.347c-1.818-7.414-3.434-15.14-1.947-22.627c0.306-1.541,0.743-3.069,0.791-4.639
		c0.11-3.638-1.879-7.185-1.321-10.782c0.174-1.119,0.584-2.17,1.08-3.197c0.897,5.561,5.227,10.146,8.609,14.818
		c0.847,1.169,1.665,2.424,1.894,3.849c0.257,1.598-0.257,3.206-0.671,4.771c-1.034,3.905-1.479,7.967-1.314,12.003
		c0.034,0.825,0.109,1.697,0.592,2.367c0.44,0.611,1.151,0.957,1.728,1.442c2.044,1.716,2.105,4.759,2.786,7.34
		c1.352,5.123,5.511,8.944,9.475,12.459c-0.184-2.734-0.368-5.468-0.553-8.202c1.191,0.42,2.478-0.516,3.057-1.638
		c0.578-1.123,0.701-2.422,1.146-3.604c0.499-1.324,1.385-2.459,2.159-3.644c0.614-0.94,1.159-1.919,1.656-2.923
		c2.798,3.32,5.596,6.64,8.394,9.961c3.196,3.793,6.426,7.636,8.599,12.094c4.424,9.074,4.021,19.835,1.542,29.621
		c-2.479,9.786-6.879,18.962-10.301,28.46c-6.272,17.411-9.224,35.811-12.143,54.086c-1.88,11.764-3.759,23.527-5.639,35.291
		c2.717-0.382,5.433-0.764,8.15-1.146c-1.404,3.649-2.809,7.297-4.213,10.946c5.614-0.64,11.026-2.965,15.355-6.598
		c-1.39,4.074-2.781,8.149-4.171,12.223c8.744-3.28,16.912-8.089,24.023-14.143c3.169,4.202,6.338,8.405,9.508,12.607
		c1.097-3.404,2.194-6.808,3.291-10.211c1.843,0.904,3.685,1.808,5.528,2.712c0.596-1.867,1.191-3.734,1.787-5.601
		c9.178,3.044,17.164,9.542,22.01,17.91c6.772-0.735,13.545-1.47,20.317-2.204c0.447-3.24,0.893-6.479,1.34-9.719
		c2.298,2.551,4.596,5.102,6.893,7.653c0.613-2.687,1.226-5.374,1.839-8.062c2.772,2.143,5.544,4.285,8.315,6.428
		c0.379-2.908,0.757-5.816,1.136-8.724c0.104-0.796,0.288-1.713,1.001-2.082c0.792-0.41,1.732,0.106,2.464,0.615
		c3.979,2.764,7.753,5.823,11.282,9.144c-2.824-17.388-5.647-34.777-8.471-52.165c-0.781-4.806-1.458-10.137,1.233-14.195
		c-1.589-0.217-3.112-0.888-4.345-1.913c0.828-0.927,1.655-1.853,2.483-2.78c-2.664-0.881-5.328-1.762-7.992-2.643
		c2.558-3.857,8.245-5.279,9.679-9.679c0.737-2.263,0.102-4.721-0.577-7.002c-3.983-13.382-9.455-26.321-16.283-38.5
		c-3.843-6.856-7.907-16.105-2.437-21.749c0.815-0.841,1.828-2.209,0.924-2.954c-0.301-0.248-0.715-0.286-1.099-0.351
		c-3.954-0.666-6.318-4.966-6.659-8.961c-0.342-3.995,0.726-7.979,0.744-11.989c0.02-4.61-1.317-8.96-3.348-13.093
		c0.036-0.355,0.072-0.71,0.101-1.066c0.628-7.593-0.355-15.513-4.138-22.126c-1.754-3.067-4.083-5.814-5.469-9.064
		c-1.391-3.261-1.758-6.852-2.101-10.382c3.897-16.258,10.979-31.954,19.062-46.676c3.808-6.935,7.886-13.814,10.209-21.376
		c0.028-0.092,0.053-0.184,0.081-0.276c1.189,1.244,2.485,2.405,3.766,3.545c1.682-3.946,0.007-8.433-1.548-12.431
		c-0.109-0.28-0.217-0.564-0.323-0.85c0.014-0.152,0.028-0.303,0.041-0.455c0.557-0.614,1.027-1.304,1.404-2.044
		c0.41,0.541,0.805,1.091,1.162,1.668c2.114,3.425,2.78,7.513,3.902,11.379c1.121,3.866,2.963,7.854,6.472,9.826
		c0.444,0.25,1.016,0.457,1.439,0.173c0.348-0.235,0.435-0.704,0.469-1.123c0.212-2.602-0.412-5.145-1.118-7.682
		c0.802,0.821,1.674,1.567,2.639,2.195c2.7,1.756,6.258,2.471,9.191,1.14c-1.312-1.745-2.882-3.285-4.192-5.032
		c-2.161-2.882-3.547-6.232-4.724-9.656c1.746,1.626,3.488,3.259,5.558,4.425c0.074-0.436,0.149-0.873,0.223-1.309
		c0.522,0.497,1.045,0.993,1.567,1.49c0.092-0.688,0.184-1.376,0.276-2.064c1.807,1.961,4.145,3.428,6.697,4.2
		c-3.85-3.779-6.362-8.882-7.067-14.227c0.357-0.032,0.713-0.066,1.069-0.102c1.825-0.185,3.706-0.42,5.466,0.099
		c2.898,0.854,4.816,3.515,7.177,5.4c2.361,1.885,6.262,2.815,8.11,0.426c-3.802-1.865-7.219-4.51-9.978-7.723
		c-1.738-2.024-3.358-4.377-5.855-5.315c-1.576-0.592-3.31-0.536-4.994-0.521c-5.563,0.052-11.13-0.424-16.604-1.417
		c0.402-1.22,0.766-2.452,1.088-3.696c0.775-1.761,1.453-3.569,2.13-5.371c4.222-11.252,8.449-22.519,11.76-34.072
		c1.402-4.894,3.075-10.363,6.802-13.5c5.617-1.043,11.653-0.025,17.123,1.882c1.032,0.36,2.104,0.756,3.188,0.62
		c1.085-0.136,2.167-1.01,2.113-2.101c-0.034-0.682-0.483-1.265-0.941-1.772c-2.257-2.495-5.133-4.274-8.216-5.672
		c0.017-0.018,0.035-0.036,0.052-0.055c0.837-0.917,1.583-1.913,2.335-2.903c1.024-0.067,2.053-0.046,3.078,0.079
		c2.031,0.249,4.066,0.898,6.084,0.561c0.597-0.1,1.163-1.046,0.56-1.1c1.214,0.097,2.456-0.189,3.505-0.807
		c-0.676-0.485-1.353-0.97-2.029-1.455c1.743-0.911,3.771-1.058,5.733-1.187c-2.813-0.454-5.53-1.483-7.948-2.989
		c0.069-0.029,0.138-0.057,0.207-0.087c1.601-0.682,3.217-1.423,4.95-1.583c4.039-0.373,7.636,2.421,11.579,3.37
		c3.819,0.919,8.04-0.012,11.119-2.453C226.29,21.211,219.293,19.142,212.174,17.653z"/>
</g>
<g id="Layer_1">
</g>
</svg>
