<?xml version="1.0" encoding="iso-8859-1"?>
<!-- Generator: Adobe Illustrator 19.0.0, SVG Export Plug-In . SVG Version: 6.00 Build 0)  -->
<svg version="1.1" xmlns="http://www.w3.org/2000/svg" xmlns:xlink="http://www.w3.org/1999/xlink" x="0px" y="0px"
	 viewBox="0 0 190.97 430" style="enable-background:new 0 0 190.97 430;" xml:space="preserve">
<g id="zombie-pattern-4">
	<g>
		<path d="M190.336,215.244c-0.594-2.251-1.713-4.324-2.821-6.372c-0.245-0.453-0.491-0.907-0.736-1.361
			c0.115,0.028,0.23,0.055,0.344,0.085c-3.219-7.61-5.74-15.515-7.521-23.583c-0.629-2.849-1.535-6.177-4.267-7.204
			c2.961-1.868,2.59-6.225,1.857-9.649c-1.487-6.953-2.974-13.905-4.461-20.858c-0.434-2.029-1.327-4.494-3.392-4.699
			c-1.363-0.135-3.143,0.698-3.867-0.464c1.244-1.33,2.227-2.903,2.879-4.603l-6.098-0.324c1.38-1.477,2.598-3.105,3.627-4.845
			c-2.753-0.651-5.506-1.301-8.259-1.952c2.211-1.623,4.422-3.246,6.634-4.869c-1.621-9.927-1.359-20.081-2.853-30.028
			c-1.494-9.946-5.075-20.114-12.731-26.637c-3.595-3.063-7.908-5.168-11.631-8.074c-1.883-1.47-3.647-3.247-4.944-5.254
			c0.999-0.816,1.973-1.663,2.919-2.539c1.655-0.211,3.294-0.546,4.897-1.005c1.265-0.362,2.541-0.819,3.544-1.671
			c0.956-0.813,1.624-2.055,1.492-3.293c4.527-3,8.499-6.825,11.568-11.314c-1.126,0.087-2.253,0.175-3.379,0.262
			c4.948-2.98,6.684-9.598,5.619-15.275c-1.065-5.677-4.352-10.649-7.567-15.448c-0.488,0.175-0.975,0.349-1.463,0.524
			c-0.669-0.757-1.143-1.685-1.364-2.671c-0.802,0.881-2.556-0.405-1.957-1.435c-10.082-2.439-21.444,1.761-27.517,10.17
			l-0.017,0.325c-0.199,0.221-0.391,0.45-0.573,0.687c-1.383,1.803-2.239,4.076-3.363,6.056c-2.481,1.268-5.009,2.589-6.88,4.651
			c0.76,5.714-13.093,11.337-13.857,14.672c-0.612,2.672,0.389,5.228,1.555,7.795c-1.984,1.481-4.084,2.806-6.275,3.956
			c-1.624,0.035-3.248,0.07-4.872,0.105c-4.687,0.101-9.471,0.219-13.879,1.814c-5.823,2.107-10.565,6.735-13.388,12.246
			c-2.18,4.257-3.269,9.006-3.489,13.796c-0.101,2.188-7.234,7.41-7.518,9.155c2.13,1.741,2.153,4.628,1.977,5.804
			c-0.693,4.638-2.837,8.914-4.951,13.1c-1.138,2.253-2.674,4.795-5.185,5.058c-0.742,0.078-1.615-0.018-2.108,0.542
			c-0.233,0.264-0.322,0.621-0.41,0.962c-1.362,5.274-4.245,10-6.72,14.853c-5.933,11.636-9.612,24.264-13.258,36.806l3.046-1.42
			c-3.165,7.32-7.374,14.188-12.471,20.322c-1.777,2.139-3.691,4.237-4.787,6.793c-1.28,2.986-1.332,6.334-1.364,9.583
			c-0.033,3.364-0.067,6.728-0.1,10.091c-0.009,0.935-0.005,1.925,0.476,2.728c0.347,0.579,0.905,0.995,1.449,1.395
			c1.796,1.321,3.591,2.641,5.387,3.962c1.984,2.608,4.19,5.047,6.593,7.275c0.349-0.897,0.661-1.809,0.944-2.729
			c0.992,1.364,2.212,2.563,3.602,3.518c0.16-1.1,0.319-2.201,0.479-3.301c0.048-0.329,0.134-0.711,0.437-0.846
			c0.084-0.038,0.175-0.027,0.257,0.01c-0.066-0.291-0.074-0.584,0.073-0.835c0.214-0.367,0.896-0.353,0.995,0.01
			c-0.268-1.966-0.428-3.933-0.498-5.9c2.105-1.969,3.983-4.179,5.581-6.577c0.377-0.566,0.747-1.161,0.871-1.83
			c0.117-0.63,0.007-1.276-0.099-1.908c-0.826-4.928-1.416-10.075,0.057-14.85c0.579-1.876,1.467-3.657,1.892-5.574
			c0.403-1.82,0.376-3.704,0.347-5.568c-0.022-1.439-0.045-2.879-0.067-4.318l1.147,1.991c2.775-10.86,6.869-21.382,12.163-31.261
			c3.129-5.838,6.802-12.062,5.816-18.612l4.286,0.903c-0.157-3.938,0.032-7.89,0.563-11.795c0.781,1.017,2.399,0.989,3.498,0.328
			c1.099-0.662,1.827-1.776,2.607-2.795c0.722-0.942,1.513-1.818,2.35-2.647c-0.847,19.604-2.297,39.193-4.963,58.629
			c-6.173,21.544-14.282,42.533-24.203,62.629c2.153,1.997,4.306,3.994,6.459,5.992c-1.299,2.004-3.345,3.511-5.644,4.158
			c0.797,0.667,1.594,1.334,2.391,2.001c-1.646,0.906-3.293,1.813-4.939,2.719c2.073,2.65-0.067,6.367-1.618,9.353
			c-3.358,6.465-3.732,14.012-4.036,21.291c-0.185,4.412,0.149,9.783,4.059,11.835c-1.942,9.218-5.086,10.79-7.996,9.997
			c-0.81,3.775-0.07,7.682,0.297,11.526c1.281,13.401-2.013,26.752-3.966,40.072c-1.656,11.3-2.353,22.741-2.079,34.159
			c1.5-0.71,3.058-1.296,4.653-1.754c0.284,1.163,0.872,22.374,2.747,31.688c0.286,1.422,0.618,2.876,1.545,4.111
			c2.003,2.671,6.153,3.641,9.847,4.635c7.198,1.938,14.007,4.768,21.335,6.367s15.579,1.831,22.125-1.247
			c1.594-0.75,3.231-2.163,2.488-3.515c-0.314-0.571-0.987-0.955-1.63-1.309c-8.038-4.435-16.076-8.87-24.114-13.305
			c-3.641-2.009-7.31-4.037-10.363-6.594c-3.514-2.944-6.122-6.565-7.589-10.458c0-3.035,1.556-11.998,1.781-13.814
			c0.225-1.815,2.256-3.821,3.6-2.581c-0.474-9.567,2.8-18.877,6.028-27.895c1.013-2.83,3.639-6.312,6.21-4.755
			c1.366-1.434,0.335-3.729-0.247-5.622c-0.582-1.893,0.405-4.827,2.291-4.223c-0.886-3.413-1.772-6.825-2.658-10.238
			c1.812,0.073,3.625,0.146,5.437,0.219c-0.925-3.374-1.282-6.902-1.05-10.393c0.247-3.723,1.152-7.367,2.054-10.988
			c2.485-9.974,4.969-19.948,7.454-29.923c1.892,0.128,3.784,0.257,5.676,0.385c1.492-16.45,8.626-31.423,16.493-46.143
			c0.426,1.419,0.886,2.827,1.346,4.221c3.963,12.014,7.925,24.028,11.888,36.042c2.58,7.822,6.434,16.842,14.494,18.537
			c-1.829,3.375-3.658,6.751-5.486,10.126c2.013,0.142,4.026,0.283,6.039,0.425c-1.012,2.073-2.024,4.146-3.035,6.219
			c1.843-0.471,3.634,1.266,4.041,3.124c0.407,1.858-0.129,3.772-0.465,5.644c-1.771,9.857,2.035,19.769,5.769,29.062
			c1.054,2.624,2.689,5.697,5.72,5.416c0.384-0.036,0.777-0.007,1.136,0.135c1.836,0.724,0.767,3.018-0.018,4.585
			c-2.031,4.051-0.805,8.901,0.457,13.253c3.589,12.376,7.178,24.752,10.767,37.128c1.65-1.241,2.948-2.945,3.707-4.864
			c0.166,0.032,0.128,0.025,0.293,0.057c0.002,4.381-0.381,8.762-1.15,13.075c-0.743,4.165-1.846,8.361-1.381,12.566
			c0.127,1.147,0.398,2.338,1.163,3.202c0.697,0.786,1.712,1.201,2.697,1.566c6.613,2.449,13.62,3.832,20.668,4.079
			c3.019,0.106,6.751-0.473,7.761-3.319c0.428-1.205,0.222-2.538-0.083-3.78c-0.83-3.38-2.322-6.504-4.112-9.508
			c-5.881-9.869-9.772-20.81-11.47-32.172c-0.193-1.292-0.415-2.58-0.667-3.862c1.365,1.97,2.73,3.939,4.095,5.908
			c-1.907-24.044-5.627-47.943-11.12-71.428c-1.608-6.873-3.374-13.756-3.828-20.8c-0.483-7.499,0.532-15.004,0.771-22.514
			c0.275-8.648-0.483-17.328-2.254-25.797c1.597,0.734,3.194,1.467,4.791,2.201c-1.75-14.296-3.931-28.538-6.538-42.702
			c-2.47-13.417-5.39-26.928-9.819-39.811c-0.075-1.906-0.212-3.816-0.302-5.716c-0.311-6.537,2.041-22.273,4.329-35.592
			c0.058,0.154,0.119,0.304,0.182,0.447c8.575,19.582,13.959,40.557,15.876,61.849c1.462,0.098,2.923,0.197,4.385,0.296
			c-1.164,1.647-2.328,3.295-3.492,4.942l4.189,0.546c-0.784,2.133-1.873,4.154-3.223,5.982c3.796,0.151,7.583,0.544,11.329,1.173
			c0.441,3.994,0.631,8.018,0.511,12.073c1.195-1.263,2.39-2.526,3.584-3.789c-0.115,1.606-0.23,3.212-0.345,4.818
			c0.997-0.545,2.04-1.001,3.115-1.368c0.074,0.949,0.148,1.898,0.222,2.847c0.262,3.354,0.475,6.938-1.188,9.862
			c-0.666,1.171-1.63,2.232-1.851,3.562c-0.133,0.804,0.024,1.624,0.18,2.423c0.616,3.148,1.232,6.296,1.848,9.445
			c0.814-0.888,1.501-1.893,2.033-2.974c0.053,0.855,0.383,1.691,0.93,2.351l1.081-2.497c0.295,0.499,0.59,0.999,0.885,1.498
			c0.271-2.963,1.508-5.703,2.837-8.391c0.491,3.396,0.89,6.93-0.305,10.13c-1.256,3.364-4.918,6.12-8.352,5.072
			c1.663,2.234,3.326,4.468,4.989,6.702c0.267,0.358,0.56,0.736,0.984,0.876c0.586,0.194,1.207-0.128,1.736-0.446
			c3.32-1.994,6.465-4.278,9.388-6.818c0.048-6.236,0.097-12.472,0.145-18.708C190.984,220.395,191,217.759,190.336,215.244z"/>
	</g>
</g>
<g id="Layer_1">
</g>
</svg>
