<?xml version="1.0" encoding="iso-8859-1"?>
<!-- Generator: Adobe Illustrator 19.0.0, SVG Export Plug-In . SVG Version: 6.00 Build 0)  -->
<svg version="1.1" xmlns="http://www.w3.org/2000/svg" xmlns:xlink="http://www.w3.org/1999/xlink" x="0px" y="0px"
	 viewBox="0 0 190.035 430" style="enable-background:new 0 0 190.035 430;" xml:space="preserve">
<g id="zombie-pattern-3">
	<path d="M177.477,284.904c1.351-4.958,1.337-10.333,0.956-15.584c3.795,1.352,7.67,2.505,11.602,3.446
		c-11.237-17.402-13.807-38.482-14.871-58.839c-1.063-20.358-0.951-41.142-7.689-60.506c-2.467-7.09-5.827-13.9-8.949-20.771
		c0.289-8.822-1.461-17.81-3.206-26.823c-4.287-3.732-8.289-7.974-13.393-10.399c1.181-0.645,2.361-1.29,3.542-1.935
		c0.264-0.144,0.56-0.334,0.591-0.633c0.031-0.298-0.218-0.543-0.445-0.739c-0.723-0.622-1.447-1.244-2.17-1.867
		c0.403-1.779,3.936-1.483,3.959-3.307c0.019-1.593-2.783-1.759-3.153-3.308c1.096-0.777,2.192-1.553,3.287-2.329
		c0.383-0.271,0.779-0.557,1.003-0.969c0.744-1.369-0.78-2.832-2.106-3.65c1.732-0.882,3.433-1.824,5.101-2.822
		c-0.372-4.284-1.024-8.504-2.499-12.538c-4.753-12.992-16.96-21.463-26.037-31.903c-4.701-5.406-8.655-11.48-13.847-16.417
		c-5.192-4.937-12.057-8.747-19.196-8.144c-4.12,0.347-8.14,2.598-10.657,5.808c-0.613-0.413-1.251-0.79-1.919-1.122
		c-1.896-0.943-3.974-1.495-6.077-1.744c-1.753-0.207-3.608-0.232-5.129-1.127c-2.039-1.199-3.378-3.88-5.743-3.901
		c-1.401-0.013-2.628,0.979-4.019,1.147c-1.885,0.227-3.564-1.06-5.22-1.99c-3.464-1.944-7.699-2.444-11.531-1.418
		c-3.932-0.559-8.059,0.243-11.464,2.297c-1.002,0.605-1.948,1.313-3.018,1.787c-1.434,0.635-3.023,0.819-4.528,1.263
		c-3.975,1.173-7.329,4.28-8.801,8.154c-1.074,2.825-1.204,6.012-2.754,8.606c-1.644,2.751-4.747,4.578-5.761,7.618
		c-1.136,3.408,0.738,7.012,1.181,10.577C5.6,49.549-1.949,58.077,0.487,66.525c1.872,6.49,9.046,10.331,11.043,16.783
		c-0.093-4.128-2.266-7.876-3.599-11.784c-1.333-3.908-1.612-8.787,1.384-11.628c0.098-0.093,0.199-0.18,0.301-0.267
		c0.046,1.348,0.276,2.702,0.636,3.988c0.984,3.52,2.817,6.735,4.172,10.129c1.356,3.394,2.233,7.185,1.203,10.691
		c-0.614,2.09-1.871,3.951-2.438,6.054c-0.496,1.839-0.443,3.776-0.336,5.678c0.127,2.26,0.35,4.604,1.496,6.555
		c0.642,1.093,1.544,2.007,2.436,2.909c1.983,2.004,3.966,4.008,5.949,6.012c1.157,1.169,2.329,2.359,3.128,3.797
		c1.855,3.344,1.415,7.438,0.922,11.23c2.511-4.14,1.429-9.469-0.166-14.041c-1.595-4.572-3.661-9.29-2.867-14.066
		c0.709-4.265,3.596-7.82,5.114-11.868c0.347-0.925,0.62-1.869,0.84-2.826c0.574,2.084,1.497,4.071,2.748,5.836
		c2.154,3.04,5.277,5.563,6.267,9.155c0.908,3.298-0.191,6.822,0.209,10.22c0.369,3.135,2.077,6.089,4.611,7.973
		c-1.897-6.68-1.046-14.096,2.316-20.172c0.776-1.402,1.691-2.766,2.049-4.328c1.132-4.934-3.59-9.782-2.566-14.74
		c0.449-2.177,1.933-3.944,3.278-5.735c0.073,0.145,0.148,0.289,0.227,0.43c1.185,2.107,3.055,3.848,3.791,6.151
		c0.802,2.51,0.118,5.215-0.254,7.824c-0.372,2.609-0.295,5.6,1.592,7.439c-0.853-3.76,0.505-7.938,3.405-10.479
		c0.147-0.129,0.298-0.253,0.451-0.374c-1.724,6.947-2.069,14.239-0.942,21.308c1.07,6.71,3.416,13.173,4.374,19.9
		c0.877,6.155,0.575,12.392,0.4,18.622c-0.286,0.73-0.563,1.464-0.836,2.198c-0.758,2.04-1.492,4.089-2.208,6.144
		c1.202,2.691,2.218,5.465,3.035,8.297c0.181,0.628,0.353,1.289,0.209,1.926c-0.175,0.773-0.777,1.363-1.318,1.943
		c-1.513,1.624-2.732,3.52-3.582,5.57c-0.435,1.05-0.659,2.501,0.298,3.115c-2.485,5.502-5.228,10.889-8.214,16.136
		c-0.431,0.757-0.871,1.515-1.342,2.251c-1.397,6.636-3.65,19.826-3.65,19.826c-0.476,5.179-1.604,10.297-3.348,15.196
		c-1.021,2.865-2.251,5.655-3.211,8.541c-1.478,4.44-2.309,9.139-1.983,13.807c0.475,6.791,3.345,13.152,6.17,19.346
		c1.442-1.484,2.139-3.501,2.343-5.586c0.574,0.479,1.149,0.959,1.723,1.439c0.268-0.97,0.374-1.984,0.31-2.989
		c0.54,0.265,1.079,0.53,1.619,0.795c-0.16-0.435-0.316-0.939-0.085-1.341c0.196-0.341,0.793-0.366,0.968-0.082
		c-0.502-1.775-1.004-3.565-1.459-5.365c1.916,2.694,4.093,5.203,6.491,7.479c1.043-1.423,1.113-3.365,0.685-5.076
		c-0.428-1.711-1.294-3.274-2.01-4.886c-0.803-1.808-1.415-3.698-1.836-5.631c3.274-6.683,4.475-14.387,3.274-21.737
		c-0.374-2.285-0.97-4.557-0.928-6.873l-0.11,0.123c5.798-13.08,14.46-32.315,15.757-34.463c2.337-3.868,3.638-8.259,4.889-12.601
		c2.171-7.535,4.276-15.167,4.689-22.998c0.119-2.255,0.097-4.519,0.037-6.784c0.679-2.968,1.191-5.986,1.634-8.959
		c0.55-3.691,1.033-7.391,1.48-11.096c1.247,0.709,2.465,1.46,3.615,2.299c1.697,1.238,3.214,2.642,4.608,4.163
		c-1.217,4.781-3.169,9.424-5.039,14.033c-1.216,2.998-2.403,6.011-3.552,9.037c0.411,4.482,0.851,8.962,1.327,13.439
		c-1.173,0.537-2.377,1.312-2.698,2.505c-0.321,1.193,0.871,2.687,2.095,2.264c-0.965,1.408-1.93,2.815-2.895,4.223
		c1.478-0.207,2.581,1.489,2.347,2.883c-0.234,1.394-1.286,2.515-2.16,3.66c-3.413,4.475-4.441,10.13-6.495,15.293
		c-1.151,2.893-2.871,5.813-5.176,7.97c-0.967,8.542-1.248,17.15-2.471,25.663c-1.58,10.999-4.729,21.786-5.688,32.848
		c0.818-0.581,1.602-1.204,2.35-1.864c-0.085,0.454-0.17,0.909-0.255,1.363c-0.55,2.945-1.1,5.944-1.138,8.92
		c-2.432,6.393-3.189,13.435-3.546,20.303c-1.976,38.055,6.37,75.912,17.61,112.447c-0.043,2.241-0.086,4.483-0.129,6.724
		c-0.103,5.339-0.018,11.201,3.646,15.268c3.795,4.212,10.195,5.138,16.022,5.683c3.119,0.292,6.301,0.551,9.36-0.093
		c3.059-0.644,6.027-2.343,7.351-5.026c1.365-2.767,0.757-6.1-0.722-8.813c-1.479-2.714-3.738-4.961-5.836-7.282
		c-7.795-8.618-13.714-18.742-17.304-29.557c-0.43-3.184-0.844-6.369-0.949-9.576c-0.262-8.002,1.4-15.892,2.914-23.787
		c-3.592-0.735-6.816-3.273-8.242-6.667c-1.701-4.049-0.743-9.074,2.329-12.213c0.722-0.738,1.615-1.535,1.549-2.565
		c-0.059-0.924-0.872-1.585-1.437-2.319c-2.087-2.709-0.152-7.393,3.239-7.838c0.528-0.069,1.171-0.117,1.407-0.594
		c0.301-0.61-0.347-1.227-0.833-1.702c-1.56-1.524-1.942-3.971-1.414-6.086c0.529-2.116,1.838-3.951,3.28-5.587
		c0.904-1.026,1.872-1.994,2.894-2.902c-0.545-8.866-1.519-17.738-2.685-26.586c1.644-2.63,3.287-5.261,4.931-7.891
		c-0.121,1.518-0.077,3.048,0.137,4.557c5.657-1.941,10.897-4.956,15.32-8.811c-0.483,3.722-1.531,7.379-3.101,10.823
		c11.033-3.288,22.831-4.265,34.302-2.841c1.387,0.172,2.938,0.342,4.057-0.451c0.232-0.164,0.425-0.354,0.588-0.564
		c1.205,2.211,2.41,4.422,3.615,6.633c-4.205,12.368-5.737,25.549-4.401,38.479c0.946,9.161,3.291,18.136,4.892,27.216
		c2.658,15.07,2.149,35.539,3.386,52.667c-0.473,8.938-5.066,17.626-12.375,23.326c-1.803,1.406-3.85,2.746-4.719,4.797
		c-0.235,0.553-0.369,1.192-0.114,1.737c0.264,0.564,0.878,0.898,1.457,1.183c6.36,3.13,13.347,5.121,20.479,5.835
		c4.263,0.427,9.098,0.205,12.065-2.717c2.902-2.858,3.002-7.272,2.854-11.229c-0.291-7.768-0.863-15.526-1.71-23.257
		c2.471-12.735,3.314-27.217,4.208-36.528c0.931-9.686,3.725-19.149,4.607-28.839c0.474-5.202,0.392-10.435,0.204-15.653
		C178.82,300.936,178.275,292.909,177.477,284.904z"/>
</g>
<g id="Layer_1">
</g>
</svg>
