<?xml version="1.0" encoding="iso-8859-1"?>
<!-- Generator: Adobe Illustrator 19.0.0, SVG Export Plug-In . SVG Version: 6.00 Build 0)  -->
<svg version="1.1" xmlns="http://www.w3.org/2000/svg" xmlns:xlink="http://www.w3.org/1999/xlink" x="0px" y="0px"
	 viewBox="0 0 430 404.687" style="enable-background:new 0 0 430 404.687;" xml:space="preserve">
<g id="zombie-pattern-2">
	<path d="M430,350.311c-8.511-3.02-16.842-6.547-24.936-10.553c0.375-0.183,0.774-0.326,1.149-0.428
		c6.24-1.689,12.754-2.36,19.207-1.979c-2.835-1.398-6.041-1.793-9.097-2.599c-3.057-0.806-6.191-2.195-7.864-4.877
		c-1.673-2.682-1.114-6.891,1.776-8.173c2.09-0.928,5.389-0.727,5.72-2.99c-2.607-2.056-5.932-3.183-9.253-3.136
		c4.438-3.835,9.137-7.369,14.054-10.569c-16.604-4.902-33.208-9.803-49.812-14.705c-1.159-0.342-2.563-1.004-2.518-2.212
		c1.709-0.951,3.418-1.901,5.128-2.852c-8.186-2.198-16.5-3.918-24.886-5.147c2.025-0.845,4.051-1.69,6.076-2.534
		c-14.537-5.243-28.333-12.538-40.851-21.6c-8.15-5.9-15.746-12.533-23.854-18.492c-5.951-4.374-12.166-8.375-18.377-12.374
		c-1.577-1.015-3.157-2.031-4.745-3.035c-1.604-4.585-3.024-9.23-4.171-13.956c-3.641-14.997-4.421-31.039,0.4-45.699
		c0.734-2.233,1.562-4.813,0.308-6.801c-0.679-1.077-1.879-1.776-2.437-2.92c-1.682-3.453,3.37-6.309,4.637-9.935
		c0.909-2.601-0.271-5.43-1.519-7.886c-2.668-5.251-5.754-10.29-9.22-15.053c-2.988-4.107-6.394-8.347-6.761-13.412
		c-0.21-2.903,0.617-5.881-0.104-8.702c-2.591,0.504-5.182,1.007-7.773,1.511c1.09-4.578,1.678-9.276,1.751-13.982
		c-3.523,1.281-6.823-2.196-9.024-5.23c-13.011-17.939-28.216-34.651-46.922-46.532c0.244,0.584,0.445,1.184,0.608,1.793
		c-1.073-1.255-2.204-2.457-3.42-3.576c-3.961-3.644-8.707-6.305-13.405-8.931c-7.112-3.976-23.249-6.025-30.627-18.937
		c-7.109-2.695-33.536-2.643-43.89-2.347C89.692,1.624,83.704,2.506,78.63,0c-0.681,3.477,1.561,6.997,4.536,8.919
		c2.975,1.922,6.563,2.592,10.044,3.247c7.106,1.337,14.271,2.811,21.35,4.587c-2.206,1.748-4.547,3.328-6.996,4.715
		c2.273,0.96,4.788,1.34,7.243,1.092c-0.227,0.757-0.454,1.513-0.682,2.27c0.725,0.021,1.45,0.042,2.176,0.063
		c-0.466,0.872-0.932,1.745-1.399,2.617c3.373-0.656,6.798-1.036,10.233-1.143c3.864,5.069,10.752,7.483,14.911,12.479
		c0.532,0.639,1.044,1.426,0.887,2.243c-0.218,1.142-1.55,1.638-2.684,1.89c-6.661,1.479-13.62,1.601-20.328,0.356
		c1.241,0.249,2.386,0.933,3.209,1.892c-5.53,0.009-11.057,0.943-16.281,2.755c2.693,1.662,5.792,2.521,8.844,3.36
		c1.927,0.53,3.869,1.059,5.823,1.513c-0.239,0.26-0.479,0.52-0.718,0.779c17.948,6.507,37.358,8.946,56.358,7.08
		c0.919-0.09,1.837-0.191,2.756-0.296c0.437,0.769,1.005,1.484,1.123,2.352c0.145,1.064-1.088,2.298-1.906,1.602
		c2.307,2.832,4.299,5.92,5.928,9.189c-2.416-0.294-4.832-0.588-7.249-0.882c3.476,13.08,14.807,22.317,25.496,30.618
		c4.617,3.586,9.234,7.171,13.851,10.757c0.673,0.522,1.419,1.216,1.292,2.058c-0.255,1.688-3.627,1.924-3.186,3.573
		c3.214,0.68,6.429,1.36,9.644,2.039c-0.915,2.79-3.052,5.156-5.735,6.349c6.603,6.173,10.547,15.1,10.666,24.138
		c0.134,10.241-4.347,19.883-7.96,29.466c-2.606,6.913-4.791,14.407-4.507,21.665c-5.679-0.341-11.311-1.609-16.577-3.749
		c-1.066-1.487-2.179-2.941-3.331-4.364c-0.766-4.234-2.08-8.367-3.945-12.247c-0.932,1.099-1.863,2.198-2.795,3.297
		c-3.503-7.874-9.111-14.8-16.083-19.864c-0.563,0.555-0.779,1.435-0.537,2.188c-4.101-2.987-8.657-5.347-13.463-6.973
		c-0.31,0.655-0.621,1.309-0.931,1.964c-2.368-1.011-4.735-2.021-7.103-3.032c0.027,1.03,0.054,2.06,0.08,3.09
		c-5.428,2.388-12.787-2.369-17.257,1.527c-1.586,1.382-2.297,3.549-3.831,4.989c-0.499-0.352-0.997-0.705-1.495-1.058
		c-1.011,1.192-2.021,2.384-3.032,3.576c0.079-0.569,0.158-1.139,0.236-1.708c-7.693,10.094-8.58,24.864-2.234,35.839
		c1.027,2.82,2.44,5.556,3.833,8.209c2.543,4.842,5.086,9.684,7.629,14.525c0.768,1.463,1.547,2.941,2.638,4.183
		c2.454,2.793,6.158,4.059,9.351,5.964c5.212,3.11,9.135,7.997,14.141,11.428c0.02,0.013,0.04,0.026,0.059,0.039
		c-1.492,5.723-4.977,10.983-8.554,15.812c-4.671,6.307-9.801,12.668-11.491,20.332c-0.905,4.104-0.763,8.357-0.586,12.556
		c0.702,16.685,1.832,33.747-2.866,49.772c-1.055,3.597-2.396,7.114-3.455,10.706c-5.924,2.406-12.373,3.524-18.761,3.202
		c-0.131,1.557-0.262,3.115-0.393,4.672c-0.042,0.498-0.1,1.036-0.438,1.405c-1.632,1.786-3.8-3.389-6.04-2.474
		c0.524,2.012-1.417,3.972-3.466,4.329c-2.048,0.356-4.105-0.385-6.092-0.997c-10.256-3.16-21.183-3.074-31.923-2.885
		c-4.17-1.568-8.422-2.918-12.732-4.043c-0.743-0.194-1.509-0.382-2.269-0.28c-1.199,0.161-2.175,1.006-3.097,1.79
		c-9.709,8.266-21.778,13.728-34.396,15.566c-1.329,0.194-2.753,0.387-3.757,1.278c-0.623,0.553-1.012,1.318-1.387,2.062
		C6.01,389.947,3.005,395.926,0,401.905c3.568,0.765,7.183,1.308,10.819,1.625c4.235,0.369,9.486-0.151,11.208-4.038
		c-0.154,1.048-0.308,2.097-0.462,3.145c1.423-0.894,2.719-1.989,3.839-3.242c0.126,0.895,0.251,1.79,0.377,2.686
		c4.225-3.563,8.449-7.125,12.674-10.687c0.706-0.596,1.433-1.203,2.302-1.516c1.232-0.444,2.591-0.244,3.889-0.069
		c1.099,0.148,2.201,0.273,3.306,0.378c-2.381,1.905-5.186,3.529-7.468,5.534c-2.73,2.399-4.816,5.525-5.981,8.967
		c5.212-0.977,10.435-2.062,15.378-3.983c4.407-1.713,8.589-4.088,13.197-5.147c1.713-0.393,3.471-0.601,5.236-0.764
		c-0.515,1.395-1.169,2.738-1.964,3.995c5.076-0.665,10.151-1.33,15.227-1.995c-3.013,0.941-5.459,3.516-6.243,6.573
		c2.551-0.679,5.101-1.359,7.652-2.038c-0.73,0.115-0.656,1.339,0.002,1.674c0.658,0.335,1.449,0.076,2.143-0.178
		c22.244-8.162,46.552-7.672,70.209-9.006c1.074-0.061,2.211-0.147,3.084-0.775c1.234-0.887,1.571-2.572,2.533-3.749
		c0.961-1.177,3.431-1.284,3.522,0.233c0.068-2.198,0.482-4.386,1.223-6.457c1.274,0.643,2.548,1.286,3.822,1.93
		c6.629-19.633,13.258-39.265,19.887-58.898c4.051,3.013,8.278,5.791,12.659,8.301c4.405,2.524,8.959,4.784,13.613,6.814
		c2.755,1.202,5.681,2.345,8.673,2.066c2.992-0.279,6.024-2.441,6.266-5.436c0.768,2.386,1.932,4.643,3.432,6.652
		c0.697-1.456,1.771-2.729,3.088-3.661c0.788,2.943,1.747,6.138,4.264,7.854c1.633,1.114,3.666,1.413,5.6,1.821
		c9.622,2.031,18.86,7.464,28.611,6.188c1.54-0.201,3.089-0.572,4.629-0.366c1.486,0.199,2.845,0.919,4.167,1.628
		c3.762,2.016,7.525,4.032,11.288,6.048c1.349,0.723,2.766,1.464,4.296,1.477c1.48,0.013,2.871-0.659,4.191-1.329
		c6.379-3.237,12.595-6.797,18.614-10.662c-1.903,2.098-3.371,4.589-4.284,7.27c2.803-1.997,5.605-3.995,8.408-5.992
		c0.395,1.263,0.251,2.684-0.388,3.842c10.957-2.1,21.904-4.253,32.842-6.451c7.259,1.558,14.402,3.804,21.76,4.842
		C395.512,359.04,427.69,351.272,430,350.311z"/>
</g>
<g id="Layer_1">
</g>
</svg>
